<svg width="29" height="29" viewBox="0 0 29 29" fill="none" xmlns="http://www.w3.org/2000/svg">
<path d="M29 19.4844C29 22.2371 27.4716 24.4688 24.4688 24.4688H4.53125C1.52839 24.4688 0 22.2371 0 19.4844V9.51562C0 6.76289 1.52839 4.53125 4.53125 4.53125H24.4688C27.4716 4.53125 29 6.76289 29 9.51562V19.4844Z" fill="#128807"/>
<path d="M25.8915 14.858L14.5679 22.8148L3.2439 14.858L14.5679 6.90109L25.8915 14.858Z" fill="#F9CB38"/>
<path fill-rule="evenodd" clip-rule="evenodd" d="M19.0358 16.2436C18.5201 17.9959 16.9065 19.3299 15.0795 19.5111C12.6386 19.7554 10.503 18.2039 9.98369 15.8055C9.83005 15.1007 9.84964 14.3691 10.0408 13.6735C10.1119 13.5965 10.2103 13.5779 10.3081 13.5643C11.0221 13.4652 11.7438 13.4338 12.4636 13.4705C13.2317 13.514 13.9934 13.6205 14.7338 13.8298C15.4937 14.0451 16.2296 14.326 16.9242 14.6994C17.447 14.9771 17.9463 15.2969 18.4173 15.6555C18.5768 15.7792 18.7394 15.9006 18.8926 16.0325C18.961 16.0914 19.0149 16.1548 19.0358 16.2436Z" fill="#002776"/>
<path fill-rule="evenodd" clip-rule="evenodd" d="M10.2968 12.9644C10.8818 11.6571 11.8683 10.7867 13.2317 10.3779C15.9776 9.5546 18.7947 11.3694 19.203 14.1996C19.2664 14.6369 19.2691 15.0755 19.2021 15.5136C19.1328 15.5395 19.0811 15.5028 19.0335 15.4634C18.5359 15.0567 18.0049 14.6926 17.4462 14.3749C17.016 14.1308 16.569 13.9176 16.1086 13.7369C16.027 13.7048 15.9246 13.688 15.8965 13.5788C15.926 13.5262 15.9631 13.4805 16.0075 13.4379C16.0234 13.4216 16.0465 13.4057 16.0252 13.3785C16.018 13.3699 16.003 13.3699 15.9903 13.3713C15.9563 13.3749 15.9609 13.3985 15.9622 13.4234C15.965 13.5045 15.9178 13.5566 15.8558 13.5983C15.7456 13.6232 15.6401 13.5901 15.5508 13.5426C15.2952 13.4084 15.0125 13.3627 14.742 13.2879C14.3201 13.1733 13.8869 13.1085 13.4546 13.0409C13.1096 12.9859 12.7624 12.9462 12.4138 12.9222C12.0966 12.9 11.7735 12.9032 11.4541 12.9249C11.1056 12.9494 10.7563 12.9739 10.4096 13.0156C10.3879 13.0187 10.3657 13.0156 10.3457 13.0065C10.3257 12.9974 10.3087 12.9828 10.2968 12.9644Z" fill="#002776"/>
<path fill-rule="evenodd" clip-rule="evenodd" d="M15.9002 13.5507C15.8983 13.606 15.9477 13.5987 15.9776 13.6105C17.1478 14.0657 18.2359 14.7085 19.1994 15.5136C19.1716 15.7622 19.1165 16.007 19.0353 16.2436C18.4685 15.7733 17.888 15.3252 17.2459 14.959C15.2164 13.8031 13.0432 13.345 10.72 13.5906C10.4935 13.6137 10.2669 13.6445 10.0403 13.6722C10.0988 13.427 10.1731 13.1864 10.295 12.9635C11.991 12.7346 13.6576 12.8647 15.293 13.3708C15.496 13.4338 15.6895 13.5353 15.906 13.5543L15.9002 13.5494" fill="#FEFEFE"/>
<path fill-rule="evenodd" clip-rule="evenodd" d="M18.0117 16.4711C17.8753 16.4566 18.0235 16.6238 17.8858 16.6202C17.7657 16.6184 17.7593 16.5223 17.7004 16.4689C17.7458 16.4217 17.826 16.4122 17.8513 16.3388C17.8685 16.4163 17.9415 16.4326 18.0117 16.4711Z" fill="#D9DFEA"/>
<path fill-rule="evenodd" clip-rule="evenodd" d="M12.866 17.3094C12.7378 17.3243 12.8452 17.4639 12.7378 17.4662C12.6295 17.4684 12.5737 17.3882 12.552 17.3053C12.5443 17.2817 12.6485 17.2292 12.6997 17.1902C12.706 17.2722 12.7912 17.2686 12.866 17.3094Z" fill="#E9ECF3"/>
<path fill-rule="evenodd" clip-rule="evenodd" d="M14.5634 17.057C14.3853 17.1721 14.529 16.912 14.4243 16.9374C14.4583 16.883 14.5544 16.8957 14.5607 16.8123C14.606 16.8594 14.6445 16.9138 14.7166 16.9238C14.6137 16.9097 14.7256 17.1381 14.5634 17.057Z" fill="#EDEFF5"/>
<path fill-rule="evenodd" clip-rule="evenodd" d="M10.8841 14.0038C10.8415 14.0849 10.8093 14.1756 10.6802 14.1212C10.614 14.0935 10.6847 14.0029 10.6054 13.9943L10.7522 13.8652C10.7622 13.8865 10.774 13.9069 10.7839 13.9282C10.7957 13.9821 10.9031 13.9105 10.8841 14.0038Z" fill="#F0F2F6"/>
<path fill-rule="evenodd" clip-rule="evenodd" d="M11.295 15.9727C11.2275 15.994 11.276 16.1716 11.131 16.0941C11.1165 16.0868 11.0531 16.1217 11.0649 16.1013C11.1029 16.027 11.0177 15.9908 11.0309 15.9314C11.1102 15.9659 11.1056 15.8209 11.1867 15.8598C11.1926 15.8644 11.1926 15.8825 11.1967 15.8943C11.2053 15.9505 11.315 15.8802 11.295 15.9727Z" fill="#ECEFF4"/>
<path fill-rule="evenodd" clip-rule="evenodd" d="M10.5823 16.4974C10.4431 16.5459 10.5469 16.3778 10.4672 16.3791C10.5043 16.3478 10.546 16.2894 10.5832 16.2917C10.6276 16.2939 10.6684 16.3488 10.7091 16.38C10.6484 16.4004 10.7123 16.5649 10.5823 16.4974Z" fill="#D9DFEA"/>
<path fill-rule="evenodd" clip-rule="evenodd" d="M15.9591 18.101C15.8118 18.168 15.955 17.97 15.8567 17.9959C15.8467 17.9202 15.9695 17.9659 15.9541 17.8862L16.0868 17.9927C16.0329 18.0172 16.0868 18.1712 15.9591 18.101Z" fill="#D8DEEA"/>
<path fill-rule="evenodd" clip-rule="evenodd" d="M16.9015 17.9918C16.7796 18.0425 16.8544 17.8785 16.7887 17.8622C16.8331 17.8336 16.8798 17.8033 16.9233 17.7738C16.9269 17.8409 17.0189 17.8164 17.0289 17.8758C16.9604 17.8799 17.0316 18.0276 16.9015 17.9918ZM17.7489 17.3819C17.6102 17.4521 17.7126 17.2677 17.6333 17.2754C17.6492 17.2165 17.7403 17.2387 17.7457 17.1707L17.8757 17.2681C17.7964 17.2659 17.8939 17.4603 17.7489 17.3819Z" fill="#DCE1EC"/>
<path fill-rule="evenodd" clip-rule="evenodd" d="M12.136 16.5359C11.991 16.6179 12.0857 16.4344 12.0187 16.4308C12.0255 16.3633 12.1279 16.3923 12.1324 16.3207C12.146 16.3868 12.2339 16.3678 12.2529 16.4272C12.1664 16.4145 12.2896 16.6225 12.136 16.5359Z" fill="#D4DAE7"/>
<path fill-rule="evenodd" clip-rule="evenodd" d="M12.7237 15.1593C12.6417 15.1539 12.7468 15.0247 12.6462 15.0329C12.6635 14.9604 12.7409 14.9754 12.7835 14.9377C12.8053 14.9835 12.8669 14.9939 12.8701 15.0596C12.8773 15.1797 12.7708 15.1176 12.7237 15.1593Z" fill="#F2F4F7"/>
<path fill-rule="evenodd" clip-rule="evenodd" d="M15.1117 16.1163C14.9862 16.1884 15.0523 16.0275 14.9943 16.0098C15.0337 15.9772 15.0718 15.9441 15.1117 15.9106C15.1144 15.9776 15.2426 15.9627 15.2064 16.0143C15.1846 16.0452 15.2549 16.1861 15.1117 16.1163Z" fill="#E6E9F1"/>
<path fill-rule="evenodd" clip-rule="evenodd" d="M14.5498 15.7126C14.4067 15.7271 14.5544 15.597 14.4615 15.6002C14.4977 15.5662 14.5326 15.5082 14.5734 15.5046C14.6088 15.501 14.6495 15.5585 14.688 15.5902C14.6378 15.6387 14.6455 15.7638 14.5498 15.7126Z" fill="#EAEDF3"/>
<path fill-rule="evenodd" clip-rule="evenodd" d="M18.0262 16.7702C18.0557 16.8481 18.1137 16.8585 18.159 16.8862C18.1128 16.9383 18.0946 17.018 17.9986 17.018C17.9002 17.0189 17.9669 16.9442 17.9446 16.9093C17.8898 16.8223 18.0924 16.8957 18.0262 16.7702Z" fill="#E4E8F0"/>
<path fill-rule="evenodd" clip-rule="evenodd" d="M17.0003 18.3489C16.9659 18.4001 16.9894 18.449 16.8979 18.4508C16.7932 18.4526 16.8268 18.3761 16.8222 18.3525C16.8136 18.3135 16.8734 18.2764 16.9079 18.2841C16.9378 18.2895 16.9958 18.3063 17.0003 18.3489Z" fill="#CED5E4"/>
<path fill-rule="evenodd" clip-rule="evenodd" d="M12.1048 16.8971C12.03 16.9057 12.0921 17.0035 11.9974 17.0004C11.9108 16.9976 11.9235 16.9392 11.914 16.9039C11.899 16.8545 11.972 16.8558 11.9883 16.8187C12.0227 16.8427 12.0576 16.8667 12.1048 16.8971Z" fill="#DAE0EB"/>
<path fill-rule="evenodd" clip-rule="evenodd" d="M16.7973 17.4145C16.8295 17.3905 16.8616 17.3683 16.8956 17.3456C16.8983 17.3959 17.0066 17.3669 16.9704 17.4313C16.9554 17.4571 16.9921 17.5278 16.8983 17.5215C16.8141 17.5156 16.834 17.4567 16.7973 17.4145Z" fill="#D8DEE9"/>
<path fill-rule="evenodd" clip-rule="evenodd" d="M16.453 17.5699C16.4367 17.6592 16.3859 17.6737 16.3302 17.6841C16.2355 17.7 16.3066 17.6288 16.2912 17.6016C16.2513 17.5337 16.3519 17.5468 16.3637 17.5024C16.39 17.5368 16.4502 17.5359 16.453 17.5699Z" fill="#CBD2E3"/>
<path fill-rule="evenodd" clip-rule="evenodd" d="M15.9228 14.6314C15.8911 14.6464 15.9332 14.722 15.8652 14.7003C15.8136 14.6826 15.7502 14.6582 15.7547 14.5947C15.7565 14.5703 15.8181 14.5499 15.8526 14.5286C15.8585 14.5743 15.9563 14.5594 15.9228 14.6314Z" fill="#D1D8E6"/>
<path fill-rule="evenodd" clip-rule="evenodd" d="M18.487 16.6188C18.4018 16.6523 18.4403 16.5821 18.4254 16.5617C18.3683 16.4842 18.4811 16.4956 18.487 16.4493C18.5219 16.4725 18.5899 16.4987 18.5871 16.5187C18.5852 16.5446 18.574 16.5689 18.5556 16.5873C18.5372 16.6056 18.5129 16.6168 18.487 16.6188Z" fill="#DADFEA"/>
<path fill-rule="evenodd" clip-rule="evenodd" d="M14.1058 15.9274C14.1058 15.9799 14.2118 15.9591 14.176 16.0248C14.1615 16.0515 14.1923 16.1231 14.1189 16.1082C14.0632 16.0968 14.007 16.0642 14.0052 16.0089C14.0052 15.9831 14.0695 15.9555 14.1058 15.9274Z" fill="#CAD2E2"/>
<path fill-rule="evenodd" clip-rule="evenodd" d="M15.5558 17.5668C15.5141 17.5473 15.5123 17.4924 15.515 17.4662C15.5195 17.4313 15.5662 17.3841 15.6061 17.4032C15.6305 17.415 15.6999 17.4082 15.6831 17.4716C15.6677 17.5323 15.607 17.5409 15.5558 17.5668Z" fill="#D0D7E5"/>
<path fill-rule="evenodd" clip-rule="evenodd" d="M17.3094 17.487C17.3112 17.4866 17.3429 17.4426 17.3787 17.4417C17.4045 17.4408 17.4308 17.4943 17.4585 17.5242C17.4213 17.5346 17.453 17.603 17.3796 17.6021C17.3135 17.6007 17.3135 17.5708 17.3094 17.487Z" fill="#EFF2F6"/>
<path fill-rule="evenodd" clip-rule="evenodd" d="M14.394 16.3397C14.3817 16.3886 14.3817 16.419 14.3382 16.4181C14.2938 16.4172 14.2721 16.4009 14.273 16.3556C14.273 16.3198 14.2965 16.2948 14.3233 16.2971C14.3541 16.2994 14.398 16.308 14.394 16.3397Z" fill="#CCD4E3"/>
<path fill-rule="evenodd" clip-rule="evenodd" d="M11.6154 15.6346C11.6372 15.6582 11.6621 15.6768 11.6716 15.7008C11.6798 15.7207 11.6671 15.7511 11.639 15.7543C11.6077 15.757 11.5742 15.7561 11.5642 15.7171C11.5551 15.679 11.5882 15.6655 11.6154 15.6346Z" fill="#E0E5EE"/>
<path fill-rule="evenodd" clip-rule="evenodd" d="M11.295 15.9727C11.2828 15.9206 11.2022 15.9536 11.1967 15.8938C11.2139 15.9391 11.3485 15.8381 11.295 15.9727Z" fill="#7085B1"/>
<path fill-rule="evenodd" clip-rule="evenodd" d="M10.8841 14.0038C10.8741 13.9481 10.7885 13.9921 10.7839 13.9282C10.808 13.9662 10.9294 13.8761 10.8841 14.0038Z" fill="#5C75A7"/>
<path fill-rule="evenodd" clip-rule="evenodd" d="M15.9092 13.5557C15.9178 13.5213 15.9455 13.4651 15.9346 13.4547C15.7869 13.3232 15.984 13.301 16.0134 13.2743C16.0673 13.2222 16.0587 13.442 16.201 13.3029C16.1244 13.4728 16.022 13.5217 15.9042 13.5507L15.9092 13.5557Z" fill="#E7EAF2"/>
<path fill-rule="evenodd" clip-rule="evenodd" d="M11.5415 13.4148C11.3975 13.4007 11.5257 13.2131 11.4944 13.1044C11.4555 12.9639 11.5579 12.9657 11.6575 12.9653C11.8121 12.9644 11.8995 13.0296 11.8995 13.1927C11.8991 13.3532 11.8248 13.4166 11.5415 13.4148Z" fill="#15A24A"/>
<path fill-rule="evenodd" clip-rule="evenodd" d="M17.047 14.3201C17.0153 14.4171 16.8979 14.4778 16.878 14.5974C16.8762 14.6133 16.8309 14.6101 16.8222 14.5639C16.786 14.3473 16.7842 14.3478 16.6242 14.4638C16.6115 14.4733 16.5893 14.4819 16.5771 14.4778C16.5535 14.4674 16.544 14.4438 16.5581 14.4171C16.6111 14.3138 16.6609 14.2078 16.7203 14.1076C16.7602 14.0415 16.8087 14.0967 16.8476 14.1158C16.9333 14.1579 17.0388 14.1819 17.047 14.3201Z" fill="#13A248"/>
<path fill-rule="evenodd" clip-rule="evenodd" d="M17.4525 14.6727C17.3692 14.7062 17.3288 14.6432 17.2754 14.6205C17.2391 14.6051 17.2051 14.5906 17.1807 14.631C17.1539 14.6736 17.1807 14.698 17.2174 14.7171C17.2455 14.7311 17.2754 14.742 17.2962 14.7642C17.3329 14.8027 17.448 14.7923 17.4013 14.8743C17.3646 14.9395 17.303 14.8634 17.2622 14.8394C17.192 14.7964 17.0529 14.7728 17.0678 14.698C17.0909 14.578 17.1594 14.4475 17.2504 14.365C17.3234 14.2988 17.404 14.4239 17.4861 14.4552C17.5214 14.4683 17.5817 14.4801 17.5712 14.5358C17.5613 14.5934 17.5187 14.5598 17.4861 14.5521C17.4095 14.5345 17.3352 14.4049 17.2749 14.4946C17.2387 14.548 17.3877 14.5702 17.4349 14.6292C17.4421 14.6378 17.4439 14.6495 17.4525 14.6727ZM18.429 15.3134C18.4426 15.4194 18.3996 15.4914 18.2885 15.4733C18.1735 15.4543 18.086 15.3841 18.0661 15.2581C18.0642 15.2454 18.0797 15.2196 18.0923 15.216C18.0996 15.2136 18.1074 15.2128 18.115 15.2137C18.1226 15.2146 18.13 15.2172 18.1365 15.2213C18.143 15.2253 18.1486 15.2308 18.1528 15.2372C18.157 15.2437 18.1597 15.2509 18.1608 15.2585C18.1753 15.3451 18.2206 15.3836 18.3117 15.3854C18.3293 15.2436 18.0733 15.1788 18.2206 15.0315C18.2944 14.9577 18.3846 15.0188 18.449 15.0782C18.5083 15.1321 18.5808 15.1915 18.4725 15.2685C18.4571 15.2604 18.4363 15.2472 18.4249 15.2563C18.4018 15.2717 18.4245 15.2939 18.429 15.3134Z" fill="#11A147"/>
<path fill-rule="evenodd" clip-rule="evenodd" d="M15.2993 13.964C15.2454 13.9336 15.2481 13.9046 15.2567 13.8729C15.274 13.8054 15.2391 13.77 15.1774 13.751C15.1158 13.7311 15.0682 13.7338 15.0515 13.8108C15.0456 13.8452 15.0275 13.8693 14.9898 13.8566C14.9463 13.8407 14.9681 13.8054 14.9763 13.7795C14.9935 13.7202 15.0089 13.6604 15.0361 13.6037C15.0605 13.5471 15.0433 13.4433 15.1326 13.4501C15.2273 13.4569 15.3297 13.4796 15.4017 13.558C15.4339 13.5924 15.447 13.6518 15.4208 13.6776C15.3442 13.7564 15.3505 13.8679 15.2993 13.964Z" fill="#0FA046"/>
<path fill-rule="evenodd" clip-rule="evenodd" d="M12.503 13.3871C12.3567 13.4424 12.2411 13.4102 12.1283 13.4125C12.0771 13.4139 12.0726 13.3754 12.0726 13.3364C12.0762 13.2933 12.0762 13.2498 12.0762 13.2068C12.0816 12.968 12.1664 12.9068 12.4011 12.9734C12.4274 12.9807 12.4523 12.9852 12.4541 13.0147C12.4541 13.0554 12.4246 13.0627 12.3884 13.0618C12.3834 13.0609 12.3775 13.0595 12.3712 13.0604C12.3009 13.0777 12.175 12.9984 12.1727 13.1035C12.17 13.1841 12.3073 13.127 12.3775 13.1542C12.3875 13.1583 12.3984 13.1674 12.4138 13.1787C12.3694 13.2589 12.2955 13.214 12.2384 13.2236C12.2044 13.229 12.16 13.214 12.155 13.2693C12.1487 13.3346 12.194 13.3314 12.2384 13.3359C12.3141 13.345 12.3961 13.3164 12.503 13.3871Z" fill="#0B9F43"/>
<path fill-rule="evenodd" clip-rule="evenodd" d="M11.3 13.4216C11.2212 13.4044 11.232 13.3591 11.2184 13.3273C11.1949 13.2689 11.1482 13.2689 11.097 13.273C11.0385 13.2784 11.0068 13.3011 11.0118 13.3659C11.0154 13.3976 11.0281 13.4488 10.9692 13.4415C10.9185 13.4352 10.933 13.3858 10.9302 13.3523C10.9257 13.2974 10.9203 13.2412 10.9257 13.1869C10.933 13.1261 10.875 13.0333 10.9624 13.0115C11.0526 12.9879 11.1568 12.9712 11.2506 13.016C11.2914 13.0355 11.3236 13.0831 11.3086 13.1216C11.2742 13.2186 11.3014 13.3169 11.3 13.4216Z" fill="#079D3F"/>
<path fill-rule="evenodd" clip-rule="evenodd" d="M10.3434 13.2675C10.3579 13.1447 10.4119 13.045 10.5464 13.0496C10.6756 13.0536 10.7445 13.1434 10.7445 13.2725C10.7445 13.4007 10.6846 13.4891 10.5483 13.4882C10.4096 13.4873 10.3625 13.3867 10.3434 13.2675Z" fill="#15A24A"/>
<path fill-rule="evenodd" clip-rule="evenodd" d="M18.9696 15.5694C18.957 15.6913 18.8967 15.7833 18.7576 15.7955C18.6293 15.8059 18.5614 15.7325 18.5514 15.612C18.5401 15.4901 18.6597 15.3736 18.7816 15.3745C18.8885 15.3755 18.9669 15.4529 18.9696 15.5694Z" fill="#11A147"/>
<path fill-rule="evenodd" clip-rule="evenodd" d="M16.4258 14.1511C16.5282 14.2336 16.404 14.2879 16.3995 14.3573C16.3143 14.3178 16.2078 14.3337 16.139 14.2589C16.0656 14.1792 16.0791 14.089 16.1272 14.0011C16.1802 13.9082 16.2618 13.8683 16.3619 13.9037C16.4534 13.9363 16.5218 13.9979 16.4774 14.1139C16.4072 14.1266 16.3497 14.0342 16.2509 14.0963C16.3166 14.1266 16.3954 14.0845 16.4258 14.1511Z" fill="#0C9F43"/>
<path fill-rule="evenodd" clip-rule="evenodd" d="M13.9608 13.2177C13.901 13.2879 13.857 13.2607 13.8158 13.2616C13.7759 13.2616 13.7333 13.2286 13.6839 13.2698C13.7283 13.3423 13.8357 13.2956 13.8774 13.3677C13.8715 13.3781 13.8688 13.3921 13.8611 13.3994C13.8013 13.4465 13.7057 13.3323 13.6685 13.4266C13.6345 13.5077 13.7238 13.4796 13.7623 13.4932C13.8058 13.5104 13.8597 13.5041 13.9123 13.563C13.7904 13.6164 13.645 13.5915 13.5947 13.5326C13.5154 13.4397 13.5711 13.2748 13.6314 13.1923C13.7025 13.0949 13.8325 13.19 13.9608 13.2177Z" fill="#19A44D"/>
<path fill-rule="evenodd" clip-rule="evenodd" d="M14.7334 13.6119C14.6305 13.601 14.5136 13.5285 14.4841 13.698C14.4832 13.7034 14.4474 13.7111 14.4366 13.7039C14.4243 13.6971 14.4175 13.6717 14.4198 13.6572C14.4465 13.5498 14.4601 13.4347 14.5077 13.3382C14.563 13.2294 14.6568 13.3214 14.7343 13.3319C14.8267 13.3441 14.8779 13.4003 14.8679 13.4977C14.8589 13.5815 14.7954 13.6042 14.7334 13.6119Z" fill="#0D9F44"/>
<path fill-rule="evenodd" clip-rule="evenodd" d="M15.9591 13.8715C15.9491 14.0079 15.882 14.1022 15.7457 14.1062C15.6238 14.1108 15.5553 14.0251 15.5581 13.9037C15.5617 13.7723 15.6256 13.6771 15.7674 13.6731C15.8975 13.6685 15.9477 13.756 15.9591 13.8715Z" fill="#0FA046"/>
<path fill-rule="evenodd" clip-rule="evenodd" d="M12.9045 13.3794C12.8896 13.4116 12.8773 13.4574 12.8343 13.4469C12.7595 13.4293 12.7931 13.3572 12.7749 13.3101C12.7197 13.2562 12.7342 13.3305 12.7169 13.3441C12.7106 13.3776 12.726 13.4288 12.6807 13.4356C12.6249 13.4424 12.6381 13.3889 12.6394 13.3572C12.644 13.2911 12.6449 13.2217 12.663 13.1583C12.6789 13.1039 12.6213 13.0038 12.7296 13.0029C12.8252 13.0024 12.8044 13.0998 12.8166 13.1583C12.8293 13.2254 12.8361 13.2539 12.8909 13.1873C12.9476 13.1723 12.9594 13.2136 12.9725 13.2534C12.9797 13.3114 12.9539 13.3518 12.9045 13.3794Z" fill="#0EA044"/>
<path fill-rule="evenodd" clip-rule="evenodd" d="M17.7308 15.0438C17.7643 15.0438 17.7983 15.0882 17.8309 15.0501C17.8559 15.0216 17.8337 14.9935 17.8115 14.9704C17.7951 14.9527 17.7779 14.9359 17.7625 14.9169C17.7163 14.8612 17.6515 14.8077 17.7154 14.727C17.7734 14.6532 17.8409 14.6713 17.908 14.718C17.9202 14.7415 17.9161 14.7642 17.9034 14.7855C17.8541 14.863 17.946 14.9101 17.9442 14.9763C17.9583 15.0383 17.9673 15.1009 17.8989 15.1367C17.8137 15.182 17.748 15.1403 17.6855 15.0859C17.6787 15.0501 17.6918 15.0324 17.7308 15.0438Z" fill="#10A146"/>
<path fill-rule="evenodd" clip-rule="evenodd" d="M16.4257 14.1511C16.3909 14.1756 16.3206 14.0963 16.3229 14.1561C16.3274 14.2621 16.2744 14.2526 16.225 14.2213C16.1584 14.1801 16.1548 14.1094 16.1969 14.0442C16.2377 13.9803 16.2952 13.9431 16.365 13.9952C16.4076 14.0265 16.4398 14.0736 16.4765 14.1139L16.4257 14.1511Z" fill="#ECF7F0"/>
<path fill-rule="evenodd" clip-rule="evenodd" d="M12.9344 13.272C12.9212 13.2441 12.9067 13.2167 12.8909 13.19C12.9068 13.1497 12.9213 13.1089 12.9403 13.0699C12.9575 13.0332 12.9874 13.0129 13.0296 13.0264C13.0767 13.0423 13.0731 13.0786 13.0704 13.1166C13.0604 13.2276 13.0513 13.3382 13.0427 13.4492C12.9766 13.4914 12.9598 13.4528 12.9489 13.3957C12.9408 13.3545 12.9621 13.3101 12.9344 13.272Z" fill="#17A34C"/>
<path fill-rule="evenodd" clip-rule="evenodd" d="M17.9456 14.9758C17.9048 14.9341 17.8613 14.8947 17.8232 14.8503C17.7788 14.7977 17.796 14.7655 17.8622 14.7569C17.9578 14.7782 18.0162 14.8244 17.9882 14.9341C17.975 14.9477 17.9605 14.9622 17.9456 14.9758Z" fill="#D7EFE0"/>
<path fill-rule="evenodd" clip-rule="evenodd" d="M17.9882 14.9341C17.9442 14.877 17.9324 14.7954 17.8622 14.7569L17.9093 14.7175C17.9854 14.7714 18.1245 14.8022 17.9882 14.9341Z" fill="#2BAB5B"/>
<path fill-rule="evenodd" clip-rule="evenodd" d="M18.429 15.3134C18.4231 15.3098 18.4154 15.3079 18.4127 15.303C18.3765 15.2359 18.2564 15.1756 18.2972 15.1163C18.3484 15.0447 18.4018 15.1294 18.4299 15.1906C18.4426 15.2164 18.458 15.2418 18.4725 15.2685C18.4576 15.2835 18.4426 15.2984 18.429 15.3134Z" fill="#E6F5EC"/>
<path fill-rule="evenodd" clip-rule="evenodd" d="M17.7308 15.0438C17.7163 15.0578 17.7022 15.0723 17.6854 15.0864C17.6664 15.0728 17.6401 15.0632 17.6279 15.0438C17.6048 14.9998 17.5386 14.9414 17.6152 14.9069C17.6795 14.8761 17.6795 14.9581 17.7004 14.998C17.709 15.0148 17.7199 15.0288 17.7308 15.0438Z" fill="#29AA59"/>
<path fill-rule="evenodd" clip-rule="evenodd" d="M12.9344 13.272C13.0006 13.2979 12.9657 13.3531 12.9666 13.3944C12.9702 13.451 12.9901 13.47 13.0432 13.4501C12.9326 13.557 12.9466 13.4143 12.9041 13.3826C12.9154 13.345 12.924 13.3083 12.9344 13.272Z" fill="#DDF1E4"/>
<path fill-rule="evenodd" clip-rule="evenodd" d="M12.7147 13.3445V13.1986C12.7772 13.2186 12.779 13.2625 12.7727 13.3106C12.7536 13.3219 12.7337 13.3328 12.7147 13.3445Z" fill="#6FC690"/>
<path fill-rule="evenodd" clip-rule="evenodd" d="M11.5855 13.195C11.5919 13.1289 11.5601 13.0428 11.673 13.05C11.7554 13.055 11.8152 13.0881 11.8198 13.1823C11.8243 13.2838 11.7649 13.3251 11.6712 13.3319C11.552 13.3414 11.6005 13.2476 11.5855 13.195Z" fill="#F5FBF7"/>
<path fill-rule="evenodd" clip-rule="evenodd" d="M16.8109 14.1919C16.8581 14.2177 16.9301 14.2227 16.9455 14.2925C16.9532 14.3287 16.9219 14.3527 16.8898 14.3423C16.83 14.3242 16.7507 14.3233 16.7425 14.239C16.7402 14.2145 16.7665 14.1837 16.8109 14.1919Z" fill="#EFF8F3"/>
<path fill-rule="evenodd" clip-rule="evenodd" d="M15.3414 13.6345C15.3292 13.6817 15.2961 13.698 15.2581 13.6839C15.2069 13.6654 15.1244 13.6857 15.1235 13.596C15.1217 13.5494 15.1534 13.5353 15.196 13.5494C15.2522 13.5675 15.3201 13.5652 15.3414 13.6345Z" fill="#DEF2E5"/>
<path fill-rule="evenodd" clip-rule="evenodd" d="M11.1084 13.0768C11.1528 13.0822 11.223 13.0586 11.2185 13.1343C11.2139 13.2005 11.1469 13.19 11.0988 13.1909C11.0603 13.1923 11.0051 13.2122 11.0014 13.1429C10.9987 13.0604 11.0631 13.0863 11.1084 13.0768Z" fill="#F3FAF5"/>
<path fill-rule="evenodd" clip-rule="evenodd" d="M10.5351 13.1397C10.6171 13.1452 10.6579 13.1941 10.6611 13.2711C10.6656 13.34 10.6316 13.3989 10.561 13.4053C10.4794 13.413 10.4427 13.3509 10.4382 13.2752C10.4336 13.2054 10.4608 13.1547 10.5351 13.1397Z" fill="#F3FAF6"/>
<path fill-rule="evenodd" clip-rule="evenodd" d="M18.8794 15.5852C18.8677 15.6605 18.8224 15.7135 18.7349 15.7135C18.6647 15.7126 18.6384 15.6614 18.6456 15.5993C18.6524 15.515 18.7027 15.4606 18.7884 15.462C18.8559 15.4638 18.8822 15.5123 18.8794 15.5852Z" fill="#F9FCFA"/>
<path fill-rule="evenodd" clip-rule="evenodd" d="M14.6269 13.389C14.6726 13.417 14.7646 13.388 14.7778 13.4787C14.7818 13.5131 14.7438 13.5308 14.7134 13.524C14.654 13.5108 14.5711 13.5321 14.5639 13.4365C14.5625 13.4071 14.5757 13.3754 14.6269 13.389Z" fill="#E7F5EC"/>
<path fill-rule="evenodd" clip-rule="evenodd" d="M15.8684 13.8824C15.8598 13.9608 15.8213 14.0156 15.742 14.0156C15.664 14.0165 15.6364 13.9622 15.64 13.8906C15.6464 13.8117 15.6912 13.7591 15.7678 13.756C15.8439 13.7533 15.8684 13.814 15.8684 13.8824Z" fill="#F5FBF7"/>
</svg>
