<svg width="139" height="116" viewBox="0 0 139 116" fill="none" xmlns="http://www.w3.org/2000/svg">
<path d="M7.67045 93V23.1818H33.2386C38.1932 23.1818 42.2955 24 45.5455 25.6364C48.7955 27.25 51.2273 29.4432 52.8409 32.2159C54.4545 34.9659 55.2614 38.0682 55.2614 41.5227C55.2614 44.4318 54.7273 46.8864 53.6591 48.8864C52.5909 50.8636 51.1591 52.4545 49.3636 53.6591C47.5909 54.8409 45.6364 55.7045 43.5 56.25V56.9318C45.8182 57.0455 48.0795 57.7955 50.2841 59.1818C52.5114 60.5455 54.3523 62.4886 55.8068 65.0114C57.2614 67.5341 57.9886 70.6023 57.9886 74.2159C57.9886 77.7841 57.1477 80.9886 55.4659 83.8295C53.8068 86.6477 51.2386 88.8864 47.7614 90.5455C44.2841 92.1818 39.8409 93 34.4318 93H7.67045ZM18.2045 83.9659H33.4091C38.4545 83.9659 42.0682 82.9886 44.25 81.0341C46.4318 79.0795 47.5227 76.6364 47.5227 73.7045C47.5227 71.5 46.9659 69.4773 45.8523 67.6364C44.7386 65.7955 43.1477 64.3295 41.0795 63.2386C39.0341 62.1477 36.6023 61.6023 33.7841 61.6023H18.2045V83.9659ZM18.2045 53.3864H32.3182C34.6818 53.3864 36.8068 52.9318 38.6932 52.0227C40.6023 51.1136 42.1136 49.8409 43.2273 48.2045C44.3636 46.5455 44.9318 44.5909 44.9318 42.3409C44.9318 39.4545 43.9205 37.0341 41.8977 35.0795C39.875 33.125 36.7727 32.1477 32.5909 32.1477H18.2045V53.3864Z" fill="white"/>
<path d="M54.6818 22.9091H63.4886L69.1705 34.7273H69.3977L75.0795 22.9091H83.8864L73.2045 42.8523V52H65.3636V42.8523L54.6818 22.9091ZM87.5014 29.2727V22.9091H112.786V29.2727H104.036V52H96.2514V29.2727H87.5014ZM115.758 52V22.9091H136.724V29.2727H123.656V34.2727H135.644V40.6364H123.656V45.6364H136.667V52H115.758Z" fill="white"/>
<path d="M82.0909 63.9091H89.9886V82.5455C89.9886 84.7614 89.4583 86.679 88.3977 88.2983C87.3466 89.9081 85.8788 91.1534 83.9943 92.0341C82.1098 92.9053 79.9223 93.3409 77.4318 93.3409C74.9223 93.3409 72.7254 92.9053 70.8409 92.0341C68.9564 91.1534 67.4886 89.9081 66.4375 88.2983C65.3958 86.679 64.875 84.7614 64.875 82.5455V63.9091H72.7727V81.8636C72.7727 82.7633 72.9716 83.5682 73.3693 84.2784C73.767 84.9792 74.3163 85.5284 75.017 85.9261C75.7273 86.3239 76.5322 86.5227 77.4318 86.5227C78.3409 86.5227 79.1458 86.3239 79.8466 85.9261C80.5473 85.5284 81.0966 84.9792 81.4943 84.2784C81.892 83.5682 82.0909 82.7633 82.0909 81.8636V63.9091ZM92.549 63.9091H101.356L107.038 75.7273H107.265L112.947 63.9091H121.754L111.072 83.8523V93H103.231V83.8523L92.549 63.9091Z" fill="white"/>
</svg>
