<svg width="39" height="37" viewBox="0 0 39 37" fill="none" xmlns="http://www.w3.org/2000/svg">
<path d="M12.5613 3.87256H26.0888C31.2421 3.87256 35.4292 7.77256 35.4292 12.5726V25.1726C35.4292 27.4799 34.4452 29.6928 32.6935 31.3244C30.9418 32.956 28.566 33.8726 26.0888 33.8726H12.5613C7.40792 33.8726 3.22083 29.9726 3.22083 25.1726V12.5726C3.22083 10.2652 4.2049 8.0523 5.95658 6.42073C7.70825 4.78916 10.084 3.87256 12.5613 3.87256ZM12.2392 6.87256C10.7016 6.87256 9.22696 7.44149 8.13972 8.45418C7.05247 9.46688 6.44167 10.8404 6.44167 12.2726V25.4726C6.44167 28.4576 9.03444 30.8726 12.2392 30.8726H26.4109C27.9485 30.8726 29.4231 30.3036 30.5103 29.2909C31.5976 28.2782 32.2084 26.9047 32.2084 25.4726V12.2726C32.2084 9.28756 29.6156 6.87256 26.4109 6.87256H12.2392ZM27.7797 9.12256C28.3136 9.12256 28.8257 9.3201 29.2032 9.67173C29.5807 10.0234 29.7928 10.5003 29.7928 10.9976C29.7928 11.4948 29.5807 11.9718 29.2032 12.3234C28.8257 12.675 28.3136 12.8726 27.7797 12.8726C27.2459 12.8726 26.7338 12.675 26.3563 12.3234C25.9788 11.9718 25.7667 11.4948 25.7667 10.9976C25.7667 10.5003 25.9788 10.0234 26.3563 9.67173C26.7338 9.3201 27.2459 9.12256 27.7797 9.12256ZM19.325 11.3726C21.4606 11.3726 23.5087 12.1627 25.0187 13.5693C26.5288 14.9758 27.3771 16.8834 27.3771 18.8726C27.3771 20.8617 26.5288 22.7693 25.0187 24.1759C23.5087 25.5824 21.4606 26.3726 19.325 26.3726C17.1895 26.3726 15.1414 25.5824 13.6313 24.1759C12.1213 22.7693 11.2729 20.8617 11.2729 18.8726C11.2729 16.8834 12.1213 14.9758 13.6313 13.5693C15.1414 12.1627 17.1895 11.3726 19.325 11.3726ZM19.325 14.3726C18.0437 14.3726 16.8149 14.8467 15.9088 15.6906C15.0028 16.5345 14.4938 17.6791 14.4938 18.8726C14.4938 20.066 15.0028 21.2106 15.9088 22.0545C16.8149 22.8985 18.0437 23.3726 19.325 23.3726C20.6064 23.3726 21.8352 22.8985 22.7413 22.0545C23.6473 21.2106 24.1563 20.066 24.1563 18.8726C24.1563 17.6791 23.6473 16.5345 22.7413 15.6906C21.8352 14.8467 20.6064 14.3726 19.325 14.3726Z" fill="#F9F5F4"/>
</svg>
