<svg width="39" height="37" viewBox="0 0 39 37" fill="none" xmlns="http://www.w3.org/2000/svg">
<g clip-path="url(#clip0_7_918)">
<path d="M30.598 5.37256C31.4522 5.37256 32.2714 5.75184 32.8754 6.42697C33.4795 7.10211 33.8188 8.01778 33.8188 8.97256V34.1726C33.8188 35.1273 33.4795 36.043 32.8754 36.7181C32.2714 37.3933 31.4522 37.7726 30.598 37.7726H8.05208C7.19786 37.7726 6.37863 37.3933 5.7746 36.7181C5.17058 36.043 4.83124 35.1273 4.83124 34.1726V8.97256C4.83124 8.01778 5.17058 7.10211 5.7746 6.42697C6.37863 5.75184 7.19786 5.37256 8.05208 5.37256H30.598ZM29.7928 33.2726V23.7326C29.7928 22.1763 29.2396 20.6837 28.2551 19.5833C27.2705 18.4828 25.9352 17.8646 24.5428 17.8646C23.1739 17.8646 21.5796 18.8006 20.8066 20.2046V18.2066H16.3135V33.2726H20.8066V24.3986C20.8066 23.0126 21.8051 21.8786 23.0451 21.8786C23.6431 21.8786 24.2165 22.1441 24.6393 22.6166C25.0621 23.0892 25.2997 23.7302 25.2997 24.3986V33.2726H29.7928ZM11.0797 15.3806C11.7972 15.3806 12.4854 15.062 12.9928 14.4949C13.5001 13.9277 13.7852 13.1586 13.7852 12.3566C13.7852 10.6826 12.5774 9.31456 11.0797 9.31456C10.3579 9.31456 9.6656 9.63505 9.1552 10.2055C8.6448 10.776 8.35806 11.5498 8.35806 12.3566C8.35806 14.0306 9.58198 15.3806 11.0797 15.3806ZM13.3182 33.2726V18.2066H8.85729V33.2726H13.3182Z" fill="#F9F5F4"/>
</g>
<defs>
<clipPath id="clip0_7_918">
<rect width="38.6501" height="36" fill="white" transform="translate(0 0.872559)"/>
</clipPath>
</defs>
</svg>
