<svg width="55" height="55" viewBox="0 0 55 55" fill="none" xmlns="http://www.w3.org/2000/svg">
<g clip-path="url(#clip0_1_22)">
<path d="M41.25 13.75H36.6667C36.6667 8.68543 32.5646 4.58334 27.5 4.58334C22.4354 4.58334 18.3334 8.68543 18.3334 13.75H13.75C11.2292 13.75 9.16669 15.8125 9.16669 18.3333V45.8333C9.16669 48.3542 11.2292 50.4167 13.75 50.4167H41.25C43.7709 50.4167 45.8334 48.3542 45.8334 45.8333V18.3333C45.8334 15.8125 43.7709 13.75 41.25 13.75ZM22.9167 22.9167C22.9167 24.1771 21.8854 25.2083 20.625 25.2083C19.3646 25.2083 18.3334 24.1771 18.3334 22.9167V18.3333H22.9167V22.9167ZM27.5 9.16668C30.0209 9.16668 32.0834 11.2292 32.0834 13.75H22.9167C22.9167 11.2292 24.9792 9.16668 27.5 9.16668ZM36.6667 22.9167C36.6667 24.1771 35.6354 25.2083 34.375 25.2083C33.1146 25.2083 32.0834 24.1771 32.0834 22.9167V18.3333H36.6667V22.9167Z" fill="#F9F5F4"/>
</g>
<defs>
<clipPath id="clip0_1_22">
<rect width="55" height="55" fill="white"/>
</clipPath>
</defs>
</svg>
