<svg width="39" height="37" viewBox="0 0 39 37" fill="none" xmlns="http://www.w3.org/2000/svg">
<path d="M30.6785 8.23765C29.2021 6.84854 27.4435 5.74715 25.5053 4.99772C23.5671 4.2483 21.4881 3.86584 19.3895 3.87265C10.5966 3.87265 3.43023 10.5476 3.43023 18.7376C3.43023 21.3626 4.17102 23.9126 5.55598 26.1626L3.30139 33.8726L11.7561 31.8026C14.0912 32.9876 16.7162 33.6176 19.3895 33.6176C28.1824 33.6176 35.3488 26.9426 35.3488 18.7526C35.3488 14.7776 33.69 11.0426 30.6785 8.23765ZM19.3895 31.0976C17.0061 31.0976 14.671 30.4976 12.6257 29.3726L12.1426 29.1026L7.11809 30.3326L8.45474 25.7726L8.13265 25.3076C6.80848 23.3381 6.10536 21.0615 6.10352 18.7376C6.10352 11.9276 12.0621 6.37765 19.3734 6.37765C22.9163 6.37765 26.2499 7.66765 28.746 10.0076C29.982 11.1536 30.9615 12.5166 31.6277 14.0178C32.2939 15.5189 32.6336 17.1283 32.6272 18.7526C32.6594 25.5626 26.7008 31.0976 19.3895 31.0976ZM26.6686 21.8576C26.266 21.6776 24.3013 20.7776 23.947 20.6426C23.5766 20.5226 23.3189 20.4626 23.0451 20.8226C22.7714 21.1976 22.0145 22.0376 21.789 22.2776C21.5636 22.5326 21.322 22.5626 20.9194 22.3676C20.5168 22.1876 19.2285 21.7826 17.7147 20.5226C16.5229 19.5326 15.7338 18.3176 15.4923 17.9426C15.2668 17.5676 15.4601 17.3726 15.6694 17.1776C15.8466 17.0126 16.072 16.7426 16.2653 16.5326C16.4585 16.3226 16.5391 16.1576 16.6679 15.9176C16.7967 15.6626 16.7323 15.4526 16.6357 15.2726C16.539 15.0926 15.7338 13.2626 15.4118 12.5126C15.0897 11.7926 14.7515 11.8826 14.5099 11.8676H13.7369C13.4631 11.8676 13.0444 11.9576 12.674 12.3326C12.3197 12.7076 11.2891 13.6076 11.2891 15.4376C11.2891 17.2676 12.7224 19.0376 12.9156 19.2776C13.1089 19.5326 15.7338 23.2826 19.7277 24.8876C20.6778 25.2776 21.4186 25.5026 21.9984 25.6676C22.9485 25.9526 23.8182 25.9076 24.5106 25.8176C25.2836 25.7126 26.8779 24.9176 27.2 24.0476C27.5382 23.1776 27.5382 22.4426 27.4255 22.2776C27.3128 22.1126 27.0712 22.0376 26.6686 21.8576Z" fill="#F9F5F4"/>
</svg>
